<!-- Generated by IcoMoon.io -->
<svg version="1.1" xmlns="http://www.w3.org/2000/svg" width="32" height="32" viewBox="0 0 32 32">
<path fill="#fff" d="M26.84 5.52c-0.425 0.015-0.815 0.24-1.040 0.6l-12.040 18.42-7.8-6.74c-0.335-0.348-0.838-0.477-1.3-0.332-0.46 0.142-0.803 0.532-0.882 1.008-0.080 0.477 0.112 0.957 0.502 1.245l8.92 7.72c0.28 0.238 0.65 0.343 1.012 0.29 0.365-0.055 0.688-0.262 0.887-0.57l12.86-19.64c0.275-0.402 0.297-0.923 0.060-1.348-0.238-0.423-0.695-0.675-1.18-0.652z"></path>
</svg>
